<svg width="21" height="21" viewBox="0 0 21 21" fill="none" xmlns="http://www.w3.org/2000/svg">
<path d="M8.59998 11.4501C9.42548 12.5537 10.6896 13.2444 12.0643 13.3428C13.439 13.4413 14.7886 12.9378 15.763 11.9631L18.613 9.11311C20.4131 7.24931 20.3873 4.28671 18.5551 2.45448C16.7229 0.622241 13.7603 0.596497 11.8965 2.39661L10.2625 4.02111" stroke="white" stroke-width="1.5" stroke-linecap="round" stroke-linejoin="round"/>
<path d="M12.4 9.55011C11.5745 8.44651 10.3103 7.75585 8.93565 7.6574C7.56098 7.55895 6.21132 8.06241 5.23697 9.03711L2.38697 11.8871C0.586853 13.7509 0.612597 16.7135 2.44483 18.5458C4.27707 20.378 7.23967 20.4037 9.10347 18.6036L10.728 16.9791" stroke="white" stroke-width="1.5" stroke-linecap="round" stroke-linejoin="round"/>
</svg>
